<?xml version="1.0" encoding="UTF-8" standalone="no"?>
<!-- Created with Inkscape (http://www.inkscape.org/) -->

<svg
   xmlns:dc="http://purl.org/dc/elements/1.1/"
   xmlns:cc="http://creativecommons.org/ns#"
   xmlns:rdf="http://www.w3.org/1999/02/22-rdf-syntax-ns#"
   xmlns:svg="http://www.w3.org/2000/svg"
   xmlns="http://www.w3.org/2000/svg"
   xmlns:sodipodi="http://sodipodi.sourceforge.net/DTD/sodipodi-0.dtd"
   xmlns:inkscape="http://www.inkscape.org/namespaces/inkscape"
   width="210mm"
   height="297mm"
   viewBox="0 0 744.09448819 1052.3622047"
   id="svg8567"
   version="1.1"
   inkscape:version="0.91 r13725"
   sodipodi:docname="plate and spoon.svg">
  <defs
     id="defs8569" />
  <sodipodi:namedview
     id="base"
     pagecolor="#ffffff"
     bordercolor="#666666"
     borderopacity="1.0"
     inkscape:pageopacity="0.0"
     inkscape:pageshadow="2"
     inkscape:zoom="0.35"
     inkscape:cx="-55"
     inkscape:cy="520"
     inkscape:document-units="px"
     inkscape:current-layer="layer1"
     showgrid="false"
     inkscape:window-width="1366"
     inkscape:window-height="719"
     inkscape:window-x="0"
     inkscape:window-y="0"
     inkscape:window-maximized="1" />
  <metadata
     id="metadata8572">
    <rdf:RDF>
      <cc:Work
         rdf:about="">
        <dc:format>image/svg+xml</dc:format>
        <dc:type
           rdf:resource="http://purl.org/dc/dcmitype/StillImage" />
        <dc:title></dc:title>
      </cc:Work>
    </rdf:RDF>
  </metadata>
  <g
     inkscape:label="Layer 1"
     inkscape:groupmode="layer"
     id="layer1">
    <g
       id="g4236"
       transform="matrix(0.25636831,0,0,0.25636831,1183.3377,136.84168)">
      <g
         id="g4186"
         transform="translate(359.83582,170.92201)">
        <ellipse
           ry="571.23938"
           rx="638.70856"
           cy="807.20355"
           cx="-3415.4863"
           id="path4182"
           style="opacity:1;fill:#000000;fill-opacity:1;stroke:#1a1a1a;stroke-width:5.99158716;stroke-miterlimit:4;stroke-dasharray:none;stroke-opacity:1" />
        <ellipse
           style="opacity:1;fill:#000000;fill-opacity:1;stroke:#ffffff;stroke-width:12.57514381;stroke-miterlimit:4;stroke-dasharray:none;stroke-opacity:1"
           id="ellipse4184"
           cx="-3415.4863"
           cy="807.20355"
           rx="573.9505"
           ry="513.32196" />
      </g>
      <g
         transform="translate(-116.20976,0)"
         id="g4232">
        <path
           sodipodi:nodetypes="sssssssss"
           inkscape:connector-curvature="0"
           id="rect4190"
           d="m -2164.5087,989.15544 34.2532,0 c 23.8032,0 42.966,21.98826 42.966,49.30096 l 0,535.1723 c 0,27.3128 -19.1628,49.3011 -42.966,49.3011 l -34.2532,0 c -23.8032,0 -44.8337,-22.0725 -42.9661,-49.3011 l 39.2866,-572.7381 c 1.8676,-27.22851 -20.1237,-11.73516 3.6795,-11.73516 z"
           style="opacity:1;fill:#000000;fill-opacity:1;stroke:none;stroke-width:9.37976265;stroke-miterlimit:4;stroke-dasharray:none;stroke-opacity:1" />
        <path
           sodipodi:nodetypes="sssssss"
           inkscape:connector-curvature="0"
           id="rect4194"
           d="m -2134.2713,492.18743 c 51.0482,0 99.7615,66.21769 92.1448,147.55836 l -38.0254,406.08251 c -7.6166,81.3406 -3.0712,9.3228 -54.1194,9.3228 -51.0481,0 -143.4173,-73.9694 -145.3802,-155.6898 l -7.605,-316.63599 c -1.9628,-81.72039 101.9371,-90.63788 152.9852,-90.63788 z"
           style="opacity:1;fill:#000000;fill-opacity:1;stroke:none;stroke-width:10.48377323;stroke-miterlimit:4;stroke-dasharray:none;stroke-opacity:1" />
      </g>
      <g
         id="g4210"
         transform="matrix(1.164794,0,0,1.164794,808.4537,-630.79247)">
        <path
           style="opacity:1;fill:#000000;fill-opacity:1;stroke:none;stroke-width:9.37976265;stroke-miterlimit:4;stroke-dasharray:none;stroke-opacity:1"
           d="m -4085.3427,1287.261 28.4301,-0.9419 c 19.7566,-0.6546 36.3433,19.3924 37.19,44.9484 l 16.5906,500.7509 c 0.8467,25.5561 -14.3766,46.6571 -34.1333,47.3117 l -28.4301,0.9418 c -19.7565,0.6546 -37.8961,-19.4199 -37.1901,-44.9485 l 14.8526,-536.9808 c 0.7061,-25.5286 -17.0664,-10.427 2.6902,-11.0816 z"
           id="path4197"
           inkscape:connector-curvature="0"
           sodipodi:nodetypes="sssssssss" />
        <path
           sodipodi:nodetypes="sssccss"
           inkscape:connector-curvature="0"
           id="rect4199"
           d="m -4123.8197,1161.6904 136.5226,0 c 52.7143,0 95.1521,27.3409 95.1521,61.3024 l 0,69.2984 c -38.1555,88.9561 -322.8103,85.6885 -326.8268,0 l 0,-69.2984 c 0,-33.9615 42.4378,-61.3024 95.1521,-61.3024 z"
           style="opacity:1;fill:#000000;fill-opacity:1;stroke:none;stroke-width:5.24700022;stroke-miterlimit:4;stroke-dasharray:none;stroke-opacity:1" />
        <rect
           ry="23.661051"
           y="987.69434"
           x="-4219.0659"
           height="283.93262"
           width="47.322102"
           id="rect4202"
           style="opacity:1;fill:#000000;fill-opacity:1;stroke:none;stroke-width:5.24700022;stroke-miterlimit:4;stroke-dasharray:none;stroke-opacity:1" />
        <rect
           style="opacity:1;fill:#000000;fill-opacity:1;stroke:none;stroke-width:5.24700022;stroke-miterlimit:4;stroke-dasharray:none;stroke-opacity:1"
           id="rect4204"
           width="47.322102"
           height="283.93262"
           x="-4118.4033"
           y="987.69434"
           ry="23.661051" />
        <rect
           ry="23.661051"
           y="987.69434"
           x="-4032.1245"
           height="283.93262"
           width="47.322102"
           id="rect4206"
           style="opacity:1;fill:#000000;fill-opacity:1;stroke:none;stroke-width:5.24700022;stroke-miterlimit:4;stroke-dasharray:none;stroke-opacity:1" />
        <rect
           style="opacity:1;fill:#000000;fill-opacity:1;stroke:none;stroke-width:5.24700022;stroke-miterlimit:4;stroke-dasharray:none;stroke-opacity:1"
           id="rect4208"
           width="47.322102"
           height="283.93262"
           x="-3941.0535"
           y="987.69434"
           ry="23.661051" />
      </g>
    </g>
  </g>
</svg>
